:version 1.10
:name ASF
:units
  mass 1
  length 1
  angle deg
:documentation
  ASF file generated by Kaydara
:root
  axis xyz
  order  tx ty tz rx ry rz
  position 0 0 0
  orientation 0 0 0
:bonedata
  begin
    id 1
    name RightUpLegDummy
    direction -1 2.30186e-007 8.31532e-007
    length 4.04083
    axis 0 0 0 xyz
  end
  begin
    id 2
    name RightUpLeg
    direction -0.000919234 -0.999985 0.00544864
    length 17.4221
    axis -3.80308 -0.00076134 -0.0523649 xyz
    dof rx ry rz
  end
  begin
    id 3
    name RightLeg
    direction -0.000919271 -0.999984 -0.00555045
    length 17.1239
    axis 4.00314 0.0181274 -0.183583 xyz
    dof rx ry rz
  end
  begin
    id 4
    name RightFoot
    direction -2.57843e-005 -4.04509e-007 1
    length 6.72091
    axis 8.18909e-005 -0.122003 -0.403008 xyz
    dof rx ry rz
  end
  begin
    id 5
    name RightToes
    direction 0.00116825 -0.014069 0.9999
    length 3.85082
    axis 0.000514414 0.540638 -0.356797 xyz
    dof rx ry rz
  end
  begin
    id 6
    name SpineDummy
    direction 0.0168869 0.966876 -0.254689
    length 6.99894
    axis 0 0 0 xyz
  end
  begin
    id 7
    name Spine
    direction -0.0132008 0.999903 0.00446247
    length 11.1999
    axis -0.00148109 0.00725429 0.756411 xyz
    dof rx ry rz
  end
  begin
    id 8
    name Spine1
    direction 0 0 0
    length 0
    axis -0.000934958 0.0245693 1.46543 xyz
    dof rx ry rz
  end
  begin
    id 9
    name HEadDummy
    direction -0.0255732 0.999672 0.00128215
    length 3.43865
    axis -0.000934958 0.0245693 1.46543 xyz
  end
  begin
    id 10
    name HEad
    direction -0.0472656 0.980052 0.19304
    length 5.12695
    axis -0.000934954 0.0245693 1.46543 xyz
    dof rx ry rz
  end
  begin
    id 11
    name LeftShoulder1Dummy
    direction 0.953098 0.301717 -0.023914
    length 3.68488
    axis -0.000934958 0.0245693 1.46543 xyz
  end
  begin
    id 12
    name LeftShoulder1
    direction 0.962466 0.271167 0.0112566
    length 3.13809
    axis -0.000934958 0.0245693 1.46543 xyz
    dof rx ry rz
  end
  begin
    id 13
    name LeftArm
    direction 0.999943 0.00455037 -0.00961766
    length 11.3419
    axis -23.1648 0.685459 1.22814 xyz
    dof rx ry rz
  end
  begin
    id 14
    name LeftForeArm
    direction 0.999332 0.0131969 0.0340885
    length 8.70632
    axis -9.90633 0.618216 0.0826942 xyz
    dof rx ry rz
  end
  begin
    id 15
    name LeftHand
    direction 0.994373 -0.0366703 0.0993905
    length 5.32135
    axis 0.00675269 0.680415 0.445699 xyz
    dof rx ry rz
  end
  begin
    id 16
    name RightShoulderDummy
    direction -0.967298 0.252589 -0.0230903
    length 3.68488
    axis -0.000934958 0.0245693 1.46543 xyz
  end
  begin
    id 17
    name RightShoulder
    direction -0.975062 0.221602 0.0120823
    length 3.13809
    axis 0.216257 0.0246515 1.45863 xyz
    dof rx ry rz
  end
  begin
    id 18
    name RightArm
    direction -0.99886 -0.00851186 -0.0469687
    length 10.3947
    axis -23.196 0.23503 -0.532632 xyz
    dof rx ry rz
  end
  begin
    id 19
    name RightForeArm
    direction -0.99909 0.00114866 0.0426317
    length 8.68355
    axis -9.91764 -0.134943 0.610517 xyz
    dof rx ry rz
  end
  begin
    id 20
    name RightHand
    direction -0.992888 -0.0489538 0.10852
    length 5.28593
    axis -0.00275396 -0.197403 0.246414 xyz
    dof rx ry rz
  end
  begin
    id 21
    name LeftUpLegDummy
    direction 1 -2.30186e-007 -8.31532e-007
    length 4.04083
    axis 0 0 0 xyz
  end
  begin
    id 22
    name LeftUpLeg
    direction -0.000920097 -1 2.79241e-006
    length 17.4221
    axis -3.48782 0.00143434 -0.0532288 xyz
    dof rx ry rz
  end
  begin
    id 23
    name LeftLeg
    direction -0.000920097 -1 2.7912e-006
    length 17.1239
    axis 3.68162 -0.00806512 -0.0529896 xyz
    dof rx ry rz
  end
  begin
    id 24
    name LeftFoot
    direction -2.57845e-005 -3.987e-007 1
    length 6.72091
    axis 3.02372e-005 -0.00147829 -0.214229 xyz
    dof rx ry rz
  end
  begin
    id 25
    name LeftToes
    direction 0.00813577 -0.00488255 0.999955
    length 3.85048
    axis 3.89895e-005 -0.0014783 -0.214229 xyz
    dof rx ry rz
  end
:hierarchy
  begin
    root RightUpLegDummy SpineDummy LeftUpLegDummy
    RightUpLegDummy RightUpLeg
    RightUpLeg RightLeg
    RightLeg RightFoot
    RightFoot RightToes
    SpineDummy Spine
    Spine Spine1
    Spine1 HEadDummy LeftShoulder1Dummy RightShoulderDummy
    HEadDummy HEad
    LeftShoulder1Dummy LeftShoulder1
    LeftShoulder1 LeftArm
    LeftArm LeftForeArm
    LeftForeArm LeftHand
    RightShoulderDummy RightShoulder
    RightShoulder RightArm
    RightArm RightForeArm
    RightForeArm RightHand
    LeftUpLegDummy LeftUpLeg
    LeftUpLeg LeftLeg
    LeftLeg LeftFoot
    LeftFoot LeftToes
  end

:SAMPLES-PER-SECOND 30
:FULLY-SPECIFIED
:DEGREES
64
root  31.5622 34.6475 -36.219 9.18535 -45.7357 0.474481
RightUpLeg  -6.62725 -16.7612 2.11268
RightLeg  4.4363 -1.80132 -0.0237593
RightFoot  1.82777 0.0128636 0.0704943
RightToes  -19.9412 -0.0730792 -0.172924
Spine  -3.21864 -0.247404 0.544858
Spine1  -6.50209 -0.40904 1.70825
HEad  -58.153 -4.8243 6.911
LeftShoulder1  -1.94126e-019 -3.10601e-018 -2.51263e-017
LeftArm  -12.6628 27.1482 -82.97
LeftForeArm  34.643 -17.1027 -2.77649
LeftHand  -0.426963 -1.58705 7.27766
RightShoulder  -4.96962e-017 0 -2.36833e-017
RightArm  -34.5892 -26.0351 76.8789
RightForeArm  54.8268 13.6698 1.31721
RightHand  -0.30082 -2.13232 -10.4969
LeftUpLeg  -6.8318 5.75349 -0.748931
LeftLeg  5.16667 14.3312 0.349346
LeftFoot  2.88751 -0.0291372 0.880163
LeftToes  -16.3492 1.34695e-006 1.12385e-007
65
root  31.5583 34.6474 -36.2175 9.17851 -45.7649 0.470417
RightUpLeg  -6.59962 -16.6964 2.11101
RightLeg  4.41322 -1.83807 -0.0166916
RightFoot  1.83534 0.0128968 0.0700206
RightToes  -19.965 -0.0730792 -0.172924
Spine  -3.23191 -0.254924 0.542072
Spine1  -6.52876 -0.423156 1.70268
HEad  -58.0532 -4.76638 6.86155
LeftShoulder1  -1.94126e-019 -3.10601e-018 -2.51263e-017
LeftArm  -12.65 27.1221 -82.9699
LeftForeArm  34.6242 -17.1055 -2.78092
LeftHand  -0.425863 -1.57041 7.27036
RightShoulder  -4.96962e-017 0 -2.36833e-017
RightArm  -34.6047 -26.015 76.8943
RightForeArm  54.8294 13.6838 1.31536
RightHand  -0.302367 -2.09397 -10.464
LeftUpLeg  -6.80073 5.76896 -0.743402
LeftLeg  5.14171 14.3663 0.345877
LeftFoot  2.86811 -0.0290986 0.879562
LeftToes  -16.2536 1.34695e-006 1.12385e-007
66
root  31.5544 34.6471 -36.2151 9.17246 -45.7892 0.467155
RightUpLeg  -6.5759 -16.6649 2.10848
RightLeg  4.39346 -1.84527 -0.0141226
RightFoot  1.83733 0.0129296 0.0695506
RightToes  -19.9352 -0.0730792 -0.172924
Spine  -3.24463 -0.266876 0.539637
Spine1  -6.55435 -0.446231 1.70094
HEad  -57.9539 -4.68842 6.81763
LeftShoulder1  -1.94126e-019 -3.10601e-018 -2.51263e-017
LeftArm  -12.6427 27.1241 -82.9732
LeftForeArm  34.6584 -17.1108 -2.78496
LeftHand  -0.425035 -1.59043 7.26721
RightShoulder  -4.96962e-017 0 -2.36833e-017
RightArm  -34.6089 -26.018 76.899
RightForeArm  54.8023 13.7516 1.30702
RightHand  -0.302013 -2.05828 -10.4912
LeftUpLeg  -6.77367 5.78803 -0.74072
LeftLeg  5.12094 14.3613 0.348946
LeftFoot  2.88831 -0.0290144 0.878254
LeftToes  -16.3292 1.34695e-006 1.12385e-007
67
root  31.5488 34.6467 -36.2108 9.16861 -45.8101 0.464667
RightUpLeg  -6.55859 -16.6954 2.10382
RightLeg  4.38697 -1.79666 -0.0196233
RightFoot  1.83589 0.0129619 0.0690895
RightToes  -19.9505 -0.0730792 -0.172924
Spine  -3.26312 -0.277515 0.537718
Spine1  -6.59136 -0.467434 1.70085
HEad  -57.8925 -4.64622 6.72416
LeftShoulder1  -1.94126e-019 -3.10601e-018 -2.51263e-017
LeftArm  -12.6445 27.1675 -82.9966
LeftForeArm  34.607 -17.139 -2.77781
LeftHand  -0.423789 -1.57746 7.27369
RightShoulder  -4.96962e-017 0 -2.36833e-017
RightArm  -34.5434 -26.0631 76.8625
RightForeArm  54.7689 13.8062 1.30045
RightHand  -0.302202 -2.02885 -10.5018
LeftUpLeg  -6.75263 5.83356 -0.73764
LeftLeg  5.1175 14.3414 0.354987
LeftFoot  2.89569 -0.0288804 0.876171
LeftToes  -16.3815 1.34695e-006 1.12385e-007
68
root  31.5459 34.646 -36.2087 9.16225 -45.8574 0.457047
RightUpLeg  -6.54811 -16.6772 2.10351
RightLeg  4.3944 -1.76514 -0.0231515
RightFoot  1.82979 0.0129932 0.0686423
RightToes  -19.9344 -0.0730792 -0.172924
Spine  -3.27911 -0.279093 0.536478
Spine1  -6.62339 -0.470916 1.70169
HEad  -57.8616 -4.60219 6.62508
LeftShoulder1  -1.94126e-019 -3.10601e-018 -2.51263e-017
LeftArm  -12.6712 27.199 -83.0228
LeftForeArm  34.5479 -17.1136 -2.77188
LeftHand  -0.423226 -1.57162 7.25298
RightShoulder  -4.96962e-017 0 -2.36833e-017
RightArm  -34.4706 -26.1048 76.8088
RightForeArm  54.6911 13.8076 1.30136
RightHand  -0.303072 -2.09115 -10.4932
LeftUpLeg  -6.73336 5.85064 -0.737215
LeftLeg  5.12527 14.3753 0.357737
LeftFoot  2.86814 -0.0285347 0.870798
LeftToes  -16.3132 1.34695e-006 1.12385e-007
69
root  31.5439 34.6445 -36.2085 9.15701 -45.8958 0.452856
RightUpLeg  -6.56349 -16.6419 2.10327
RightLeg  4.44346 -1.76156 -0.0231858
RightFoot  1.80658 0.0130232 0.0682141
RightToes  -19.9363 -0.0730792 -0.172924
Spine  -3.28477 -0.277291 0.536081
Spine1  -6.63512 -0.468156 1.70273
HEad  -57.8985 -4.54616 6.61899
LeftShoulder1  -1.94126e-019 -3.10601e-018 -2.51263e-017
LeftArm  -12.697 27.2173 -83.0557
LeftForeArm  34.5836 -17.0627 -2.76064
LeftHand  -0.422595 -1.57757 7.2435
RightShoulder  -4.96962e-017 0 -2.36833e-017
RightArm  -34.4649 -26.1281 76.7467
RightForeArm  54.6704 13.7561 1.30817
RightHand  -0.303138 -2.08725 -10.5082
LeftUpLeg  -6.74165 5.85701 -0.738029
LeftLeg  5.17391 14.404 0.370539
LeftFoot  2.83696 -0.0280941 0.86395
LeftToes  -16.2666 1.34695e-006 1.12385e-007
70
root  31.5434 34.6429 -36.2092 9.14877 -45.9373 0.451327
RightUpLeg  -6.56865 -16.5903 2.10122
RightLeg  4.46966 -1.77317 -0.0214389
RightFoot  1.79104 0.0130515 0.0678099
RightToes  -19.9136 -0.0730792 -0.172924
Spine  -3.29128 -0.271016 0.536691
Spine1  -6.64808 -0.457298 1.70328
HEad  -58.0037 -4.55286 6.57128
LeftShoulder1  -1.94126e-019 -3.10601e-018 -2.51263e-017
LeftArm  -12.7388 27.22 -83.0797
LeftForeArm  34.6659 -16.9638 -2.74591
LeftHand  -0.421934 -1.57244 7.2344
RightShoulder  -4.96962e-017 0 -2.36833e-017
RightArm  -34.5054 -26.1571 76.6855
RightForeArm  54.742 13.6666 1.31871
RightHand  -0.303371 -2.18387 -10.5208
LeftUpLeg  -6.73723 5.87833 -0.738173
LeftLeg  5.20027 14.4179 0.377456
LeftFoot  2.8122 -0.0277128 0.858023
LeftToes  -16.2398 1.34695e-006 1.12385e-007
71
root  31.5438 34.6416 -36.2102 9.12974 -45.9904 0.450936
RightUpLeg  -6.56172 -16.5321 2.0962
RightLeg  4.49806 -1.78042 -0.0205616
RightFoot  1.78584 0.0130777 0.067435
RightToes  -19.9687 -0.0730792 -0.172924
Spine  -3.28759 -0.259581 0.538473
Spine1  -6.6406 -0.436203 1.7026
HEad  -58.1112 -4.55159 6.58675
LeftShoulder1  -1.94126e-019 -3.10601e-018 -2.51263e-017
LeftArm  -12.7717 27.2249 -83.1241
LeftForeArm  34.5906 -16.8764 -2.73445
LeftHand  -0.418907 -1.57529 7.34623
RightShoulder  -4.96962e-017 0 -2.36833e-017
RightArm  -34.654 -26.1659 76.6282
RightForeArm  54.8932 13.5677 1.32929
RightHand  -0.303596 -2.13644 -10.5293
LeftUpLeg  -6.7236 5.93783 -0.735892
LeftLeg  5.22726 14.4142 0.384079
LeftFoot  2.81357 -0.0277018 0.857852
LeftToes  -16.3755 1.34695e-006 1.12385e-007
72
root  31.5451 34.6409 -36.2115 9.12671 -45.9935 0.451247
RightUpLeg  -6.57528 -16.5345 2.09812
RightLeg  4.52457 -1.77387 -0.0218105
RightFoot  1.77435 0.0131015 0.0670944
RightToes  -19.9365 -0.0730792 -0.172924
Spine  -3.28401 -0.261264 0.541589
Spine1  -6.63344 -0.441125 1.69957
HEad  -58.1658 -4.59992 6.52049
LeftShoulder1  -1.94126e-019 -3.10601e-018 -2.51263e-017
LeftArm  -12.8033 27.2333 -83.1356
LeftForeArm  34.6824 -16.8389 -2.72637
LeftHand  -0.42019 -1.54459 7.24084
RightShoulder  -4.96962e-017 0 -2.36833e-017
RightArm  -34.668 -26.2012 76.6003
RightForeArm  54.9102 13.5473 1.33161
RightHand  -0.30286 -2.11938 -10.5684
LeftUpLeg  -6.73401 5.9421 -0.736611
LeftLeg  5.25387 14.4053 0.390469
LeftFoot  2.79077 -0.0272697 0.851136
LeftToes  -16.287 1.34695e-006 1.12385e-007
73
root  31.5481 34.6405 -36.2159 9.11822 -46.0053 0.451823
RightUpLeg  -6.60282 -16.5101 2.09832
RightLeg  4.57135 -1.78901 -0.0202848
RightFoot  1.76182 0.0131226 0.0667932
RightToes  -19.942 -0.0730792 -0.172924
Spine  -3.27466 -0.267789 0.549675
Spine1  -6.6148 -0.455637 1.7143
HEad  -58.1224 -4.67566 6.29925
LeftShoulder1  -1.94126e-019 -3.10601e-018 -2.51263e-017
LeftArm  -12.7519 27.3037 -83.181
LeftForeArm  34.6574 -16.8051 -2.71922
LeftHand  -0.418852 -1.56548 7.28663
RightShoulder  -4.96962e-017 0 -2.36833e-017
RightArm  -34.7061 -26.2461 76.5519
RightForeArm  54.9708 13.543 1.33128
RightHand  -0.303847 -2.14822 -10.5548
LeftUpLeg  -6.75849 5.94535 -0.736667
LeftLeg  5.30231 14.419 0.402895
LeftFoot  2.76289 -0.0268422 0.844492
LeftToes  -16.2402 1.34695e-006 1.12385e-007
74
root  31.5502 34.6402 -36.2185 9.11208 -46.0124 0.45223
RightUpLeg  -6.61811 -16.5035 2.09603
RightLeg  4.59591 -1.78423 -0.0216555
RightFoot  1.76026 0.0131406 0.0665365
RightToes  -19.9392 -0.0730792 -0.172924
Spine  -3.274 -0.271275 0.557747
Spine1  -6.61352 -0.462903 1.72953
HEad  -58.0963 -4.71668 6.08551
LeftShoulder1  -1.94126e-019 -3.10601e-018 -2.51263e-017
LeftArm  -12.7042 27.3495 -83.1948
LeftForeArm  34.6232 -16.8269 -2.72316
LeftHand  -0.419504 -1.55729 7.22874
RightShoulder  -4.96962e-017 0 -2.36833e-017
RightArm  -34.7559 -26.2631 76.5297
RightForeArm  55.0045 13.5255 1.33413
RightHand  -0.303983 -2.10499 -10.5652
LeftUpLeg  -6.77138 5.95244 -0.735433
LeftLeg  5.32776 14.427 0.409457
LeftFoot  2.77866 -0.0267167 0.842542
LeftToes  -16.3462 1.34695e-006 1.12385e-007
